<svg width="75" height="76" viewBox="0 0 75 76" fill="none" xmlns="http://www.w3.org/2000/svg">
<g clip-path="url(#clip0_342_4059)">
<rect width="75" height="75" transform="translate(0 0.924683)" fill="white"/>
<path d="M26.7878 65.2097V74.431C26.7878 75.2575 27.455 75.9247 28.2816 75.9247H36.0091C36.8356 75.9247 37.5028 75.2575 37.5028 74.431V66.7034C37.5028 65.8769 36.8356 65.2097 36.0091 65.2097H26.7878Z" fill="#D4D2E3"/>
<path d="M26.7872 43.7797H6.8509C6.02438 43.7797 5.35718 44.4469 5.35718 45.2734V63.7159C5.35718 64.5425 6.02438 65.2097 6.8509 65.2097H26.7872V43.7797Z" fill="#D4D2E3"/>
<path d="M26.7878 2.41841V43.7797H68.1491C68.9757 43.7797 69.6429 43.1125 69.6429 42.286V2.41841C69.6429 1.59188 68.9757 0.924683 68.1491 0.924683H28.2816C27.455 0.924683 26.7878 1.59188 26.7878 2.41841Z" fill="#E61E25"/>
</g>
<defs>
<clipPath id="clip0_342_4059">
<rect width="75" height="75" fill="white" transform="translate(0 0.924683)"/>
</clipPath>
</defs>
</svg>
