<svg width="1440" height="500" viewBox="0 0 1440 500" fill="none" xmlns="http://www.w3.org/2000/svg">
<g clip-path="url(#clip0_1399_391)">
<rect width="1440" height="500" fill="#E61E25"/>
<path d="M1129.51 347.574V147.914C1129.51 145.429 1131.52 143.414 1134.01 143.414L1618.97 143.414C1621.45 143.414 1623.47 145.429 1623.47 147.914L1623.47 347.574C1623.47 350.059 1621.45 352.074 1618.97 352.074H1134.01C1131.52 352.074 1129.51 350.059 1129.51 347.574Z" fill="#232324"/>
<path d="M1034.14 499.999V427.676H1096.38C1101.96 427.676 1106.46 432.179 1106.46 437.758V499.999H1034.14Z" fill="white"/>
<path d="M1034.13 283.029H899.568C893.989 283.029 889.485 287.533 889.485 293.112V417.594C889.485 423.173 893.989 427.677 899.568 427.677H1034.13V283.029Z" fill="white"/>
<path d="M1034.14 283.029V0H1326.38V273.164C1326.38 278.623 1321.83 283.029 1316.19 283.029H1034.14Z" fill="white"/>
<path d="M-18.6289 495.418V397.936C-18.6289 395.45 -16.6142 393.436 -14.1289 393.436L192.007 393.436C194.492 393.436 196.507 395.45 196.507 397.936L196.507 499.918H-14.1289C-16.6142 499.918 -18.6289 497.903 -18.6289 495.418Z" fill="#232324"/>
<g style="mix-blend-mode:multiply">
<rect x="82.5308" y="93.0352" width="31.084" height="31.0847" rx="1.5" fill="#C4C4C4" fill-opacity="0.5"/>
</g>
<g style="mix-blend-mode:multiply">
<rect x="123.976" y="134.48" width="72" height="72" rx="1.5" fill="#C4C4C4" fill-opacity="0.5"/>
</g>
<g style="mix-blend-mode:multiply">
<rect x="953.361" y="50.9434" width="30" height="30" rx="2" fill="#C4C4C4" fill-opacity="0.5"/>
<rect x="964.016" y="61.3047" width="113.686" height="114.623" rx="2" fill="#C4C4C4" fill-opacity="0.5"/>
</g>
<path d="M123.562 426.073C123.562 425.263 124.22 424.605 125.03 424.605H132.595C133.405 424.605 134.062 425.263 134.062 426.073V435.105H125.03C124.22 435.105 123.562 434.448 123.562 433.638V426.073Z" fill="white"/>
<path d="M144.562 426.073C144.562 425.263 145.22 424.605 146.03 424.605H153.595C154.405 424.605 155.062 425.263 155.062 426.073V433.638C155.062 434.448 154.405 435.105 153.595 435.105H144.562V426.073Z" fill="white"/>
<path d="M134.062 454.638C134.062 455.448 133.405 456.105 132.595 456.105L125.03 456.105C124.22 456.105 123.562 455.448 123.562 454.638L123.562 447.073C123.562 446.263 124.22 445.605 125.03 445.605L134.062 445.605L134.062 454.638Z" fill="white"/>
<path d="M144.562 444.138C144.562 444.948 143.905 445.605 143.095 445.605L134.062 445.605L134.062 435.105L144.562 435.105L144.562 444.138Z" fill="white"/>
<path d="M1224.23 217.789C1223.42 217.789 1222.76 217.132 1222.76 216.321L1222.76 208.757C1222.76 207.946 1223.42 207.289 1224.23 207.289L1233.26 207.289L1233.26 216.321C1233.26 217.132 1232.6 217.789 1231.79 217.789L1224.23 217.789Z" fill="#E61E25"/>
<path d="M1224.23 196.789C1223.42 196.789 1222.76 196.132 1222.76 195.321L1222.76 187.757C1222.76 186.946 1223.42 186.289 1224.23 186.289L1231.79 186.289C1232.6 186.289 1233.26 186.946 1233.26 187.757L1233.26 196.789L1224.23 196.789Z" fill="#E61E25"/>
<path d="M1242.29 196.789C1243.1 196.789 1243.76 197.446 1243.76 198.257L1243.76 205.821C1243.76 206.632 1243.1 207.289 1242.29 207.289L1233.26 207.289L1233.26 196.789L1242.29 196.789Z" fill="#E61E25"/>
<rect x="1398.91" y="320.99" width="10.5" height="10.5" rx="1.5" transform="rotate(-180 1398.91 320.99)" fill="#E61E25"/>
</g>
<defs>
<clipPath id="clip0_1399_391">
<rect width="1440" height="500" fill="white"/>
</clipPath>
</defs>
</svg>
