<svg width="390" height="566" viewBox="0 0 390 566" fill="none" xmlns="http://www.w3.org/2000/svg">
<g clip-path="url(#clip0_1399_355)">
<rect width="390" height="566" fill="#E61E25"/>
<path d="M371.146 347.574V147.914C371.146 145.429 373.161 143.414 375.646 143.414L860.606 143.414C863.092 143.414 865.106 145.429 865.106 147.914L865.107 347.574C865.107 350.059 863.092 352.074 860.607 352.074H375.646C373.161 352.074 371.146 350.059 371.146 347.574Z" fill="#232324"/>
<g style="mix-blend-mode:multiply">
<rect x="205.654" y="-37.6387" width="113.686" height="114.623" rx="2" fill="#C4C4C4" fill-opacity="0.5"/>
</g>
<path d="M-108 615.982V518.5C-108 516.015 -105.985 514 -103.5 514L102.636 514C105.121 514 107.136 516.015 107.136 518.5L107.136 620.482H-103.5C-105.985 620.482 -108 618.467 -108 615.982Z" fill="#232324"/>
<path d="M34 504.468C34 503.657 34.6571 503 35.4678 503H43.0322C43.8429 503 44.5 503.657 44.5 504.468V513.5H35.4678C34.6571 513.5 34 512.843 34 512.032V504.468Z" fill="white"/>
<path d="M55 504.468C55 503.657 55.6571 503 56.4678 503H64.0322C64.8429 503 65.5 503.657 65.5 504.468V512.032C65.5 512.843 64.8429 513.5 64.0322 513.5H55V504.468Z" fill="white"/>
<path d="M44.5 533.032C44.5 533.843 43.8429 534.5 43.0322 534.5L35.4678 534.5C34.6571 534.5 34 533.843 34 533.032L34 525.468C34 524.657 34.6571 524 35.4678 524L44.5 524L44.5 533.032Z" fill="white"/>
<path d="M55 522.532C55 523.343 54.3429 524 53.5322 524L44.5 524L44.5 513.5L55 513.5L55 522.532Z" fill="white"/>
</g>
<defs>
<clipPath id="clip0_1399_355">
<rect width="390" height="566" fill="white"/>
</clipPath>
</defs>
</svg>
