<svg width="390" height="500" viewBox="0 0 390 500" fill="none" xmlns="http://www.w3.org/2000/svg">
<g clip-path="url(#clip0_1400_356)">
<rect width="390" height="500" fill="white"/>
<path d="M347.924 135.982C347.924 135.154 348.595 134.482 349.424 134.482H356.924C357.752 134.482 358.424 135.154 358.424 135.982V144.982H349.424C348.595 144.982 347.924 144.311 347.924 143.482V135.982Z" fill="#E61E25"/>
<path d="M358.424 144.982H439.808C440.636 144.982 441.308 145.654 441.308 146.482V155.306H359.924C359.095 155.306 358.424 154.634 358.424 153.806V144.982Z" fill="#E61E25"/>
<path d="M266.531 449.5C265.703 449.5 265.031 448.828 265.031 448L265.031 440.5C265.031 439.672 265.703 439 266.531 439L274.031 439C274.86 439 275.531 439.672 275.531 440.5L275.531 449.5L266.531 449.5Z" fill="#E61E25"/>
<path d="M277.031 460C276.203 460 275.531 459.328 275.531 458.5L275.531 449.5L286.031 449.5L286.031 458.5C286.031 459.328 285.36 460 284.531 460L277.031 460Z" fill="#E61E25"/>
<path d="M286.031 449.5L286.031 440.5C286.031 439.672 286.703 439 287.531 439L295.031 439C295.86 439 296.531 439.672 296.531 440.5L296.531 448C296.531 448.828 295.86 449.5 295.031 449.5L286.031 449.5Z" fill="#E61E25"/>
<path d="M203 67.5C203 68.3284 202.328 69 201.5 69L194 69C193.172 69 192.5 68.3284 192.5 67.5L192.5 58.5L201.5 58.5C202.328 58.5 203 59.1716 203 60L203 67.5Z" fill="#E61E25"/>
<path d="M192.5 58.5L183.5 58.5C182.672 58.5 182 57.8284 182 57L182 49.5C182 48.6716 182.672 48 183.5 48L191 48C191.828 48 192.5 48.6716 192.5 49.5L192.5 58.5Z" fill="#E61E25"/>
<path d="M23.5 135.844C23.5 135.015 24.1716 134.344 25 134.344H32.5C33.3284 134.344 34 135.015 34 135.844V143.344C34 144.172 33.3284 144.844 32.5 144.844H23.5V135.844Z" fill="#E61E25"/>
<path d="M13 146.344C13 145.515 13.6716 144.844 14.5 144.844H23.5V155.344H14.5C13.6716 155.344 13 154.672 13 153.844V146.344Z" fill="#E61E25"/>
<path d="M23.5 155.344H32.5C33.3284 155.344 34 156.015 34 156.844V164.344C34 165.172 33.3284 165.844 32.5 165.844H25C24.1716 165.844 23.5 165.172 23.5 164.344V155.344Z" fill="#E61E25"/>
<path d="M28.8926 478.861C28.8926 479.69 28.221 480.361 27.3926 480.361L19.8926 480.361C19.0642 480.361 18.3926 479.69 18.3926 478.861L18.3926 469.861L27.3926 469.861C28.221 469.861 28.8926 470.533 28.8926 471.361L28.8926 478.861Z" fill="#E61E25"/>
<path d="M-64.5 459.5H16.884C17.7125 459.5 18.384 460.172 18.384 461V469.823H-63C-63.8284 469.823 -64.5 469.152 -64.5 468.323V459.5Z" fill="#E61E25"/>
</g>
<defs>
<clipPath id="clip0_1400_356">
<rect width="390" height="500" fill="white"/>
</clipPath>
</defs>
</svg>
