<svg width="1440" height="405" viewBox="0 0 1440 405" fill="none" xmlns="http://www.w3.org/2000/svg">
<rect width="1440" height="405" fill="white"/>
<path d="M72.031 239.32C72.031 238.492 72.7026 237.82 73.531 237.82H81.031C81.8594 237.82 82.531 238.492 82.531 239.32V248.32H73.531C72.7026 248.32 72.031 247.649 72.031 246.82V239.32Z" fill="#E61E25"/>
<path d="M175.924 267.682C175.924 268.51 175.252 269.182 174.424 269.182L166.924 269.182C166.095 269.182 165.424 268.51 165.424 267.682L165.424 258.682L174.424 258.682C175.252 258.682 175.924 259.353 175.924 260.182L175.924 267.682Z" fill="#E61E25"/>
<path d="M82.531 248.32H163.915C164.743 248.32 165.415 248.992 165.415 249.82V258.643H84.031C83.2026 258.643 82.531 257.972 82.531 257.143V248.32Z" fill="#E61E25"/>
<rect x="1388.55" y="321.129" width="10.5" height="10.5" rx="1.5" transform="rotate(-180 1388.55 321.129)" fill="#E61E25"/>
<rect x="207.008" y="72.4502" width="10.5" height="10.5" rx="1.5" transform="rotate(-180 207.008 72.4502)" fill="#E61E25"/>
<path d="M1253.85 135.981C1253.85 135.153 1254.52 134.481 1255.35 134.481H1262.85C1263.68 134.481 1264.35 135.153 1264.35 135.981V144.981H1255.35C1254.52 144.981 1253.85 144.31 1253.85 143.481V135.981Z" fill="#E61E25"/>
<path d="M1357.74 164.343C1357.74 165.171 1357.07 165.843 1356.24 165.843L1348.74 165.843C1347.91 165.843 1347.24 165.171 1347.24 164.343L1347.24 155.343L1356.24 155.343C1357.07 155.343 1357.74 156.014 1357.74 156.843L1357.74 164.343Z" fill="#E61E25"/>
<path d="M1264.35 144.981H1345.73C1346.56 144.981 1347.23 145.653 1347.23 146.481V155.305H1265.85C1265.02 155.305 1264.35 154.633 1264.35 153.805V144.981Z" fill="#E61E25"/>
<path d="M289.486 312.128C289.486 311.3 290.157 310.628 290.986 310.628H298.486C299.314 310.628 299.986 311.3 299.986 312.128V321.128H290.986C290.157 321.128 289.486 320.456 289.486 319.628V312.128Z" fill="#E61E25"/>
<path d="M393.378 340.489C393.378 341.318 392.707 341.989 391.878 341.989L384.378 341.989C383.55 341.989 382.878 341.318 382.878 340.489L382.878 331.489L391.878 331.489C392.707 331.489 393.378 332.161 393.378 332.989L393.378 340.489Z" fill="#E61E25"/>
<path d="M299.986 321.128H381.37C382.198 321.128 382.87 321.8 382.87 322.628V331.451H301.486C300.657 331.451 299.986 330.779 299.986 329.951V321.128Z" fill="#E61E25"/>
<path d="M300.124 135.844C300.124 135.015 300.796 134.344 301.624 134.344H309.124C309.952 134.344 310.624 135.015 310.624 135.844V143.344C310.624 144.172 309.952 144.844 309.124 144.844H300.124V135.844Z" fill="#E61E25"/>
<path d="M289.624 146.344C289.624 145.515 290.296 144.844 291.124 144.844H300.124V155.344H291.124C290.296 155.344 289.624 154.672 289.624 153.844V146.344Z" fill="#E61E25"/>
<path d="M300.124 155.344H309.124C309.952 155.344 310.624 156.015 310.624 156.844V164.344C310.624 165.172 309.952 165.844 309.124 165.844H301.624C300.796 165.844 300.124 165.172 300.124 164.344V155.344Z" fill="#E61E25"/>
<path d="M1172.45 269.182C1171.63 269.182 1170.95 268.51 1170.95 267.682L1170.95 260.182C1170.95 259.353 1171.63 258.682 1172.45 258.682L1179.95 258.682C1180.78 258.682 1181.45 259.353 1181.45 260.182L1181.45 269.182L1172.45 269.182Z" fill="#E61E25"/>
<path d="M1182.95 279.682C1182.13 279.682 1181.45 279.01 1181.45 278.182L1181.45 269.182L1191.95 269.182L1191.95 278.182C1191.95 279.01 1191.28 279.682 1190.45 279.682L1182.95 279.682Z" fill="#E61E25"/>
<path d="M1191.95 269.182L1191.95 260.182C1191.95 259.353 1192.63 258.682 1193.45 258.682L1200.95 258.682C1201.78 258.682 1202.45 259.353 1202.45 260.182L1202.45 267.682C1202.45 268.51 1201.78 269.182 1200.95 269.182L1191.95 269.182Z" fill="#E61E25"/>
<path d="M1108.92 101.896C1108.92 102.725 1108.25 103.396 1107.42 103.396L1099.92 103.396C1099.1 103.396 1098.42 102.725 1098.42 101.896L1098.42 92.8965L1107.42 92.8965C1108.25 92.8965 1108.92 93.5681 1108.92 94.3965L1108.92 101.896Z" fill="#E61E25"/>
<path d="M1098.42 92.8965L1089.42 92.8965C1088.6 92.8965 1087.92 92.2249 1087.92 91.3965L1087.92 83.8965C1087.92 83.0681 1088.6 82.3965 1089.42 82.3965L1096.92 82.3965C1097.75 82.3965 1098.42 83.0681 1098.42 83.8965L1098.42 92.8965Z" fill="#E61E25"/>
</svg>
