<svg width="390" height="90" viewBox="0 0 390 90" fill="none" xmlns="http://www.w3.org/2000/svg">
<g clip-path="url(#clip0_1389_339)">
<path d="M300 1.5C300 0.671573 300.672 0 301.5 0H309C309.828 0 310.5 0.671573 310.5 1.5V10.5H301.5C300.672 10.5 300 9.82843 300 9V1.5Z" fill="#E61E25"/>
<path d="M310.5 10.5H391.884C392.712 10.5 393.384 11.1716 393.384 12V20.8231H312C311.172 20.8231 310.5 20.1515 310.5 19.3231V10.5Z" fill="#E61E25"/>
<path d="M123.5 11.5C123.5 10.6716 124.172 10 125 10H132.5C133.328 10 134 10.6716 134 11.5V19C134 19.8284 133.328 20.5 132.5 20.5H123.5V11.5Z" fill="#E61E25"/>
<path d="M113 22C113 21.1716 113.672 20.5 114.5 20.5H123.5V31H114.5C113.672 31 113 30.3284 113 29.5V22Z" fill="#E61E25"/>
<path d="M123.5 31H132.5C133.328 31 134 31.6716 134 32.5V40C134 40.8284 133.328 41.5 132.5 41.5H125C124.172 41.5 123.5 40.8284 123.5 40V31Z" fill="#E61E25"/>
<rect x="29.5" y="67.5" width="10.5" height="10.5" rx="1.5" transform="rotate(-180 29.5 67.5)" fill="#E61E25"/>
</g>
<defs>
<clipPath id="clip0_1389_339">
<rect width="390" height="90" fill="white"/>
</clipPath>
</defs>
</svg>
