<svg width="25" height="22" viewBox="0 0 25 22" fill="none" xmlns="http://www.w3.org/2000/svg">
<path d="M-5.5 10.7852C-6.32843 10.7852 -7 10.1136 -7 9.28516L-7 1.78516C-7 0.956729 -6.32843 0.285156 -5.5 0.285156L2 0.285156C2.82843 0.285156 3.5 0.956729 3.5 1.78516L3.5 10.7852L-5.5 10.7852Z" fill="#E61E25"/>
<path d="M5 21.2852C4.17157 21.2852 3.5 20.6136 3.5 19.7852L3.5 10.7852L14 10.7852L14 19.7852C14 20.6136 13.3284 21.2852 12.5 21.2852L5 21.2852Z" fill="#E61E25"/>
<path d="M14 10.7852L14 1.78516C14 0.956729 14.6716 0.285156 15.5 0.285156L23 0.285156C23.8284 0.285156 24.5 0.956729 24.5 1.78516L24.5 9.28516C24.5 10.1136 23.8284 10.7852 23 10.7852L14 10.7852Z" fill="#E61E25"/>
</svg>
