<svg width="225" height="100" viewBox="0 0 225 100" fill="none" xmlns="http://www.w3.org/2000/svg">
<rect width="219" height="100" fill="white"/>
<path d="M40.9897 91.4555V66.9554H45.6682V91.4555H40.9897ZM45.7385 78.3876L54.5677 66.9554H60.0727L50.8918 78.3876L60.5828 91.4555H55.1833L45.7385 78.3876Z" fill="black"/>
<path d="M63.1331 79.2142C63.1331 75.0165 64.0769 71.839 65.9647 69.6815C67.8642 67.5123 70.5552 66.4277 74.0376 66.4277C77.52 66.4277 80.211 67.5123 82.1105 69.6815C84.01 71.839 84.9598 75.0165 84.9598 79.2142C84.9598 83.4119 84.01 86.5953 82.1105 88.7645C80.211 90.922 77.52 92.0007 74.0376 92.0007C70.5552 92.0007 67.8642 90.922 65.9647 88.7645C64.0769 86.5953 63.1331 83.4119 63.1331 79.2142ZM68.1632 82.9956C68.1632 83.8164 68.3215 84.5375 68.6381 85.159C68.9547 85.7804 69.3768 86.308 69.9044 86.7419C70.4321 87.1757 71.0477 87.4982 71.7512 87.7092C72.4547 87.9203 73.2168 88.0258 74.0376 88.0258C74.8584 88.0258 75.6205 87.9203 76.3241 87.7092C77.0393 87.4982 77.6608 87.1757 78.1884 86.7419C78.716 86.308 79.1323 85.7804 79.4371 85.159C79.7537 84.5258 79.912 83.8047 79.912 82.9956V75.4328C79.912 74.612 79.7537 73.8909 79.4371 73.2695C79.1323 72.648 78.716 72.1204 78.1884 71.6865C77.6608 71.2527 77.0393 70.9303 76.3241 70.7192C75.6205 70.4964 74.8584 70.385 74.0376 70.385C73.2168 70.385 72.4547 70.4964 71.7512 70.7192C71.0477 70.9303 70.4321 71.2527 69.9044 71.6865C69.3768 72.1204 68.9547 72.648 68.6381 73.2695C68.3215 73.8909 68.1632 74.612 68.1632 75.4328V82.9956Z" fill="black"/>
<path d="M89.9548 91.4555V66.9554H99.9272C102.542 66.9554 104.477 67.5768 105.731 68.8197C106.986 70.0509 107.613 71.9504 107.613 74.5182C107.613 76.4646 107.15 78.03 106.224 79.2142C105.297 80.3868 104.008 81.2017 102.354 81.659L107.965 91.4555H102.776L97.6231 82.0459H94.6332V91.4555H89.9548ZM94.6332 78.1941H100.543C102.008 78.1941 102.741 77.3792 102.741 75.7494V73.2343C102.741 72.4135 102.577 71.8273 102.249 71.4755C101.932 71.112 101.364 70.9303 100.543 70.9303H94.6332V78.1941Z" fill="black"/>
<path d="M112.784 91.4555V66.9554H129.633V70.9303H117.462V76.9454H127.98V80.9027H117.462V87.4982H129.633V91.4555H112.784Z" fill="black"/>
<path d="M134.699 91.4555V66.9554H141.716L149.033 85.6163H149.174V66.9554H153.834V91.4555H146.799L139.483 72.7594H139.342V91.4555H134.699Z" fill="black"/>
<path d="M204.718 91.9962V67.4961H209.397V91.9962H204.718ZM209.467 78.9283L218.296 67.4961H223.801L214.62 78.9283L224.311 91.9962H218.912L209.467 78.9283Z" fill="#E61E25"/>
<path d="M173.763 91.9962V67.4961H181.396L186.163 86.7374H186.303L190.982 67.4961H198.65V91.9962H194.148V72.579H194.007L188.994 91.9962H183.419L178.406 72.579H178.266V91.9962H173.763Z" fill="#E61E25"/>
<path d="M166.361 86.875H161.237V91.999H166.361V86.875Z" fill="#E61E25"/>
<path d="M20.4961 67.4824V76.3018C20.4961 77.0923 21.1342 77.7304 21.9247 77.7304H29.3154C30.1059 77.7304 30.7441 77.0923 30.7441 76.3018V68.911C30.7441 68.1205 30.1059 67.4824 29.3154 67.4824H20.4961Z" fill="#E61E25"/>
<path d="M20.4959 46.9883H1.42862C0.638117 46.9883 0 47.6264 0 48.4169V66.0556C0 66.8461 0.638117 67.4842 1.42862 67.4842H20.4959V46.9883Z" fill="#D4D2E3"/>
<path d="M20.4961 7.42862V46.9871H60.0546C60.8451 46.9871 61.4832 46.349 61.4832 45.5585V7.42862C61.4832 6.63812 60.8451 6 60.0546 6H21.9247C21.1342 6 20.4961 6.63812 20.4961 7.42862Z" fill="#D4D2E3"/>
</svg>
