<svg width="152" height="100" viewBox="0 0 152 100" fill="none" xmlns="http://www.w3.org/2000/svg">
<g clip-path="url(#clip0_2054_3382)">
<path d="M35.218 49.9049C35.218 48.6016 35.36 47.4209 35.6471 46.3628C35.9342 45.3047 36.3664 44.4015 36.9471 43.6499C37.5278 42.9014 38.2601 42.3208 39.1407 41.9143C40.0246 41.5078 41.0601 41.3014 42.2537 41.3014C43.0828 41.3014 43.857 41.4208 44.5796 41.6595C45.299 41.8982 45.9248 42.2466 46.4571 42.7079C46.9894 43.166 47.4152 43.7208 47.7378 44.3725C48.0571 45.0241 48.241 45.7499 48.2894 46.5499H45.1603C45.0829 45.679 44.7732 45.0273 44.2377 44.5983C43.6989 44.166 42.9634 43.9499 42.0311 43.9499C41.5376 43.9499 41.0763 44.0305 40.6472 44.1918C40.2182 44.3531 39.8537 44.5789 39.5472 44.8692C39.2407 45.1596 39.0052 45.5112 38.8343 45.9273C38.6665 46.3435 38.5826 46.8112 38.5826 47.3274V52.3405C38.5826 52.834 38.6762 53.2921 38.8601 53.7115C39.0439 54.1308 39.2956 54.4921 39.6182 54.7954C39.9408 55.0986 40.315 55.3341 40.7408 55.5019C41.1698 55.6696 41.6279 55.7535 42.1247 55.7535C43.1021 55.7535 43.857 55.5406 44.3861 55.118C44.9151 54.6954 45.2603 54.0018 45.4183 53.034H48.5475C48.4217 53.9824 48.1765 54.7954 47.8087 55.4696C47.441 56.1438 46.9765 56.6987 46.4119 57.1277C45.8474 57.56 45.199 57.8793 44.4635 58.0923C43.728 58.3052 42.9344 58.4084 42.0795 58.4084C40.8859 58.4084 39.8633 58.1955 39.0085 57.7664C38.1536 57.3374 37.4439 56.7471 36.8794 55.9954C36.3148 55.2438 35.8955 54.347 35.6277 53.3082C35.3535 52.2695 35.218 51.134 35.218 49.9049Z" fill="#232324"/>
<path d="M51.1444 49.8565C51.1444 47.05 51.7767 44.9209 53.0445 43.4724C54.3123 42.024 56.1091 41.3014 58.4382 41.3014C60.7641 41.3014 62.5609 42.024 63.8287 43.4724C65.0965 44.9209 65.732 47.0467 65.732 49.8565C65.732 52.6663 65.0965 54.7921 63.8287 56.2406C62.5609 57.689 60.7641 58.4116 58.4382 58.4116C56.1091 58.4116 54.309 57.689 53.0445 56.2406C51.7767 54.7921 51.1444 52.6663 51.1444 49.8565ZM54.509 52.3856C54.509 52.934 54.6155 53.4179 54.8252 53.8341C55.0381 54.2502 55.3187 54.6018 55.6736 54.8922C56.0252 55.1825 56.4381 55.3986 56.9091 55.5406C57.3801 55.6825 57.8898 55.7535 58.4382 55.7535C58.9866 55.7535 59.4995 55.6825 59.9737 55.5406C60.4479 55.3986 60.8609 55.1825 61.2157 54.8922C61.5706 54.6018 61.848 54.247 62.0577 53.8276C62.2641 53.4082 62.3706 52.9276 62.3706 52.3856V47.3274C62.3706 46.779 62.2674 46.2951 62.0577 45.879C61.8512 45.4628 61.5706 45.1112 61.2157 44.8209C60.8641 44.5305 60.4479 44.3144 59.9737 44.1692C59.4995 44.0241 58.9866 43.9531 58.4382 43.9531C57.8898 43.9531 57.3801 44.0273 56.9091 44.1692C56.4381 44.3144 56.0252 44.5338 55.6736 44.8209C55.322 45.1112 55.0381 45.4628 54.8252 45.879C54.6123 46.2951 54.509 46.7758 54.509 47.3274V52.3856Z" fill="#232324"/>
<path d="M69.2546 58.0439V41.6531H74.7968C77.3839 41.6531 79.2453 42.3305 80.3808 43.6886C81.5131 45.0467 82.0809 47.1016 82.0809 49.8533C82.0809 52.5986 81.5131 54.6503 80.3808 56.0084C79.2485 57.3665 77.3872 58.0439 74.7968 58.0439H69.2546ZM72.3838 55.3987H74.7968C76.1 55.3987 77.0936 55.1406 77.7839 54.6277C78.4743 54.1148 78.8195 53.3083 78.8195 52.2083V47.4888C78.8195 46.3984 78.4743 45.5951 77.7839 45.0822C77.0936 44.5693 76.0968 44.3112 74.7968 44.3112H72.3838V55.3987Z" fill="#232324"/>
<path d="M85.6356 58.0438V41.653H96.907V44.3111H88.7648V48.3338H95.8005V50.9823H88.7648V55.3953H96.907V58.0438H85.6356Z" fill="#232324"/>
<path d="M100.501 58.0439V41.6531H106.043C108.63 41.6531 110.491 42.3305 111.627 43.6886C112.759 45.0467 113.327 47.1016 113.327 49.8533C113.327 52.5986 112.759 54.6503 111.627 56.0084C110.495 57.3665 108.633 58.0439 106.043 58.0439H100.501ZM103.633 55.3987H106.046C107.349 55.3987 108.343 55.1406 109.033 54.6277C109.724 54.1148 110.069 53.3083 110.069 52.2083V47.4888C110.069 46.3984 109.724 45.5951 109.033 45.0822C108.343 44.5693 107.346 44.3112 106.046 44.3112H103.633V55.3987Z" fill="#232324"/>
<path d="M34.3373 68.5087V65.8506H47.0216V68.5087H42.244V82.2382H39.1149V68.5087H34.3373Z" fill="#E61E25"/>
<path d="M49.7927 82.2381V65.8473H52.9219V72.5765H59.4511V65.8473H62.5802V82.2381H59.4511V75.2282H52.9219V82.2414H49.7927V82.2381Z" fill="#E61E25"/>
<path d="M66.7738 82.2381V65.8473H69.9029V82.2381H66.7738Z" fill="#E61E25"/>
<path d="M74.0966 82.2383V65.8474H78.7709L83.6743 78.3317H83.7678V65.8474H86.897V82.2383H82.1775L77.2741 69.7314H77.1805V82.2383H74.0966Z" fill="#E61E25"/>
<path d="M91.0781 82.2381V65.8473H94.2073V82.2381H91.0781ZM94.2524 73.4992L100.159 65.8505H103.843L97.7009 73.4992L104.185 82.2414H100.572L94.2524 73.4992Z" fill="#E61E25"/>
<path d="M106.92 82.2381V65.8473H110.049V82.2381H106.92Z" fill="#E61E25"/>
<path d="M114.243 82.2381V65.8473H118.918L123.821 78.3316H123.915V65.8473H127.044V82.2381H122.324L117.421 69.7313H117.327V82.2381H114.243Z" fill="#E61E25"/>
<path d="M130.553 74.0992C130.553 72.796 130.695 71.6153 130.982 70.5572C131.269 69.4991 131.705 68.5958 132.295 67.8442C132.882 67.0958 133.628 66.5151 134.524 66.1086C135.421 65.7022 136.482 65.4957 137.708 65.4957C138.579 65.4957 139.379 65.6151 140.108 65.8538C140.837 66.0925 141.47 66.4409 142.008 66.9022C142.547 67.3603 142.979 67.9152 143.308 68.5668C143.638 69.2184 143.828 69.9443 143.873 70.7443H140.744C140.563 69.012 139.476 68.1442 137.486 68.1442C136.428 68.1442 135.566 68.4507 134.908 69.0604C134.25 69.6733 133.921 70.4927 133.921 71.5185V76.5316C133.921 77.0251 134.015 77.4832 134.199 77.9026C134.382 78.322 134.637 78.6833 134.957 78.9865C135.276 79.2897 135.657 79.5252 136.092 79.693C136.528 79.8607 137.005 79.9446 137.521 79.9446C138.579 79.9446 139.424 79.6801 140.057 79.151C140.689 78.622 141.005 77.7897 141.005 76.6509V75.9445H137.641V73.296H144.147V82.2382H141.231L141.16 80.7446C140.321 81.9834 139.012 82.6027 137.231 82.6027C136.124 82.6027 135.153 82.3898 134.318 81.9608C133.482 81.5317 132.786 80.9414 132.231 80.1898C131.673 79.4381 131.256 78.5413 130.979 77.5026C130.692 76.4638 130.553 75.3283 130.553 74.0992Z" fill="#E61E25"/>
<path d="M38.7991 97.7225V88.6157H40.4733V91.819C40.6862 91.4803 40.9572 91.2126 41.2862 91.0222C41.6153 90.8319 42.0089 90.7351 42.4669 90.7351C42.9186 90.7351 43.3153 90.8287 43.6573 91.0158C43.996 91.2029 44.2799 91.4577 44.4993 91.7771C44.7218 92.0965 44.8864 92.4771 44.9928 92.9159C45.0993 93.3546 45.1541 93.8191 45.1541 94.3127C45.1541 94.8127 45.0993 95.2805 44.9928 95.7127C44.8864 96.145 44.7218 96.5224 44.4993 96.845C44.2767 97.1676 43.996 97.4225 43.6573 97.6096C43.3186 97.7967 42.9218 97.8902 42.4669 97.8902C42.0121 97.8902 41.6217 97.7934 41.2895 97.6031C40.9572 97.4128 40.6862 97.145 40.4733 96.8063V97.7289H38.7991V97.7225ZM40.4733 94.8224C40.4733 95.3579 40.5959 95.7869 40.8378 96.1063C41.083 96.4257 41.4734 96.5869 42.0089 96.5869C42.4444 96.5869 42.7863 96.4676 43.0379 96.2321C43.2895 95.9934 43.4153 95.674 43.4153 95.274V93.3449C43.4153 92.9449 43.2895 92.6255 43.0411 92.39C42.7928 92.1545 42.4476 92.0384 42.0089 92.0384C41.4734 92.0384 41.083 92.1997 40.8378 92.5191C40.5927 92.8384 40.4733 93.2675 40.4733 93.803V94.8224Z" fill="#232324"/>
<path d="M46.0312 90.8998H47.8281L49.312 95.7709H49.3636L50.8927 90.8998H52.6637L49.3636 100H46.4474V98.7065H48.1604L48.4926 97.7258L46.0312 90.8998Z" fill="#232324"/>
<path d="M57.6158 97.7225V88.6157H59.3546V97.7225H57.6158ZM59.3804 92.8675L62.6612 88.6189H64.7064L61.2934 92.8675L64.8935 97.7257H62.887L59.3804 92.8675Z" fill="#232324"/>
<path d="M65.5028 94.3128C65.5028 93.7773 65.5738 93.2901 65.7189 92.8514C65.8641 92.4127 66.0706 92.0353 66.3415 91.7191C66.6125 91.403 66.948 91.1611 67.3448 90.9901C67.7416 90.8191 68.1932 90.7352 68.7029 90.7352C69.2126 90.7352 69.6675 90.8191 70.0642 90.9901C70.461 91.1611 70.7965 91.403 71.0675 91.7191C71.3385 92.0353 71.5482 92.4127 71.6901 92.8514C71.832 93.2901 71.903 93.7773 71.903 94.3128C71.903 94.8483 71.832 95.3354 71.6901 95.7709C71.5482 96.2064 71.3417 96.5838 71.0675 96.9032C70.7933 97.2225 70.461 97.4645 70.0642 97.6355C69.6675 97.8064 69.2126 97.8903 68.7029 97.8903C68.1932 97.8903 67.7416 97.8064 67.3448 97.6355C66.948 97.4645 66.6157 97.2225 66.3415 96.9032C66.0673 96.5838 65.8609 96.2096 65.7189 95.7709C65.577 95.3354 65.5028 94.8483 65.5028 94.3128ZM67.2416 95.2999C67.2416 95.7096 67.3803 96.0257 67.6577 96.2515C67.9351 96.4774 68.2835 96.587 68.7029 96.587C69.1223 96.587 69.4707 96.4774 69.7481 96.2612C70.0255 96.0419 70.1643 95.7225 70.1643 95.2999V93.3192C70.1643 92.8998 70.0255 92.5837 69.7481 92.3643C69.4707 92.145 69.1223 92.0385 68.7029 92.0385C68.2835 92.0385 67.9351 92.1482 67.6577 92.3708C67.3803 92.5934 67.2416 92.9095 67.2416 93.3192V95.2999Z" fill="#232324"/>
<path d="M73.6708 97.7226V90.8998H77.4806V92.2063H75.3418V97.7226H73.6708Z" fill="#232324"/>
<path d="M78.5194 94.2999C78.5194 93.7644 78.5936 93.2773 78.742 92.8385C78.8904 92.3998 79.0968 92.0256 79.3646 91.7127C79.6323 91.3998 79.9549 91.1611 80.3356 90.9901C80.713 90.8191 81.1356 90.7352 81.5969 90.7352C82.0582 90.7352 82.4776 90.8191 82.855 90.9836C83.2325 91.1482 83.5551 91.3772 83.8228 91.6675C84.0906 91.9579 84.297 92.303 84.439 92.703C84.5809 93.103 84.6519 93.5385 84.6519 94.0031V94.845H80.2582V95.2967C80.2582 95.7064 80.3937 96.0225 80.6614 96.2483C80.9292 96.4741 81.2485 96.5838 81.6163 96.5838C81.984 96.5838 82.284 96.487 82.5131 96.2967C82.7454 96.1064 82.8808 95.8354 82.926 95.487H84.6003C84.4906 96.2451 84.1712 96.8354 83.6422 97.2548C83.1131 97.6742 82.4292 97.8871 81.5969 97.8871C81.113 97.8871 80.6808 97.8 80.3001 97.6258C79.9195 97.4516 79.5969 97.2064 79.3323 96.8935C79.0678 96.5806 78.8678 96.2032 78.7291 95.7612C78.5904 95.3225 78.5194 94.8354 78.5194 94.2999ZM80.2582 93.5482H82.9389V93.3063C82.9389 92.9321 82.8131 92.6256 82.5583 92.3901C82.3034 92.1546 81.984 92.0385 81.5937 92.0385C81.2098 92.0385 80.8905 92.1546 80.6356 92.3901C80.3808 92.6256 80.255 92.9321 80.255 93.3063V93.5482H80.2582Z" fill="#232324"/>
<path d="M86.4454 97.7226V90.8998H88.1197V91.8869C88.3229 91.5224 88.5907 91.2385 88.9197 91.0385C89.2487 90.8385 89.6552 90.7385 90.1391 90.7385C90.9069 90.7385 91.4714 90.9611 91.8327 91.4095C92.194 91.8579 92.3747 92.4708 92.3747 93.2547V97.7258H90.7004V93.3741C90.7004 92.9741 90.6165 92.6612 90.4456 92.4386C90.2746 92.216 89.9907 92.1063 89.5907 92.1063C89.1294 92.1063 88.7681 92.2612 88.51 92.5676C88.2519 92.8741 88.1197 93.2805 88.1197 93.7806V97.7291H86.4454V97.7226Z" fill="#232324"/>
<path d="M151.428 78.7703H147.957V82.2413H151.428V78.7703Z" fill="#E61E25"/>
<path d="M14.0143 41.6498V47.6242C14.0143 48.1597 14.4466 48.5919 14.9821 48.5919H19.9887C20.5242 48.5919 20.9565 48.1597 20.9565 47.6242V42.6176C20.9565 42.0821 20.5242 41.6498 19.9887 41.6498H14.0143Z" fill="#D4D2E3"/>
<path d="M14.014 27.7654H1.09741C0.561911 27.7654 0.129639 28.1977 0.129639 28.7332V40.6819C0.129639 41.2174 0.561911 41.6497 1.09741 41.6497H14.014V27.7654Z" fill="#D4D2E3"/>
<path d="M14.0143 0.967773V27.7654H40.812C41.3475 27.7654 41.7798 27.3331 41.7798 26.7976V0.967773C41.7798 0.432272 41.3475 0 40.812 0H14.9821C14.4466 0 14.0143 0.432272 14.0143 0.967773Z" fill="#E61E25"/>
</g>
<defs>
<clipPath id="clip0_2054_3382">
<rect width="151.298" height="100" fill="white" transform="translate(0.129883)"/>
</clipPath>
</defs>
</svg>
