<?xml version="1.0" encoding="UTF-8"?>
<svg xmlns="http://www.w3.org/2000/svg" xmlns:xlink="http://www.w3.org/1999/xlink" width="377.472pt" height="226.054pt" viewBox="0 0 377.472 226.054">
<defs>
<g>
<g id="glyph-0-0">
<path d="M 5.796875 -1.140625 C 5.21875 -0.75 4.875 -0.53125 3.890625 -0.53125 C 2.453125 -0.53125 1.5625 -2.03125 1.5625 -3.46875 C 1.5625 -4.828125 2.375 -6.390625 3.90625 -6.390625 C 4.609375 -6.390625 5.0625 -6.21875 5.609375 -5.875 L 5.75 -6.6875 C 5.328125 -6.890625 4.5625 -7.03125 3.921875 -7.03125 C 2.078125 -7.03125 0.65625 -5.46875 0.65625 -3.375 C 0.65625 -1.796875 1.84375 0.109375 3.921875 0.109375 C 4.828125 0.109375 5.21875 -0.046875 5.859375 -0.453125 Z M 5.796875 -1.140625 "/>
</g>
<g id="glyph-0-1">
<path d="M 4.671875 -2.1875 C 4.671875 -3.53125 3.671875 -4.59375 2.5 -4.59375 C 1.265625 -4.59375 0.296875 -3.5 0.296875 -2.1875 C 0.296875 -0.875 1.3125 0.109375 2.484375 0.109375 C 3.671875 0.109375 4.671875 -0.890625 4.671875 -2.1875 Z M 2.484375 -0.53125 C 1.796875 -0.53125 1.078125 -1.09375 1.078125 -2.296875 C 1.078125 -3.5 1.828125 -3.984375 2.484375 -3.984375 C 3.1875 -3.984375 3.890625 -3.46875 3.890625 -2.296875 C 3.890625 -1.109375 3.21875 -0.53125 2.484375 -0.53125 Z M 2.484375 -0.53125 "/>
</g>
<g id="glyph-0-2">
<path d="M 4.328125 -6.921875 L 3.578125 -6.921875 L 3.578125 -3.984375 C 3.046875 -4.421875 2.5 -4.53125 2.125 -4.53125 C 1.140625 -4.53125 0.359375 -3.5 0.359375 -2.21875 C 0.359375 -0.90625 1.125 0.109375 2.078125 0.109375 C 2.40625 0.109375 2.984375 0.015625 3.546875 -0.515625 L 3.546875 0 L 4.328125 0 Z M 3.546875 -1.390625 C 3.546875 -1.25 3.53125 -1.0625 3.21875 -0.78125 C 2.984375 -0.578125 2.734375 -0.5 2.484375 -0.5 C 1.859375 -0.5 1.140625 -0.96875 1.140625 -2.203125 C 1.140625 -3.515625 2 -3.921875 2.578125 -3.921875 C 3.03125 -3.921875 3.328125 -3.703125 3.546875 -3.375 Z M 3.546875 -1.390625 "/>
</g>
<g id="glyph-0-3">
<path d="M 1.625 -6.78125 L 0.734375 -6.78125 L 0.734375 -5.890625 L 1.625 -5.890625 Z M 1.5625 -4.421875 L 0.8125 -4.421875 L 0.8125 0 L 1.5625 0 Z M 1.5625 -4.421875 "/>
</g>
<g id="glyph-0-4">
<path d="M 4.34375 -2.96875 C 4.34375 -3.625 4.1875 -4.53125 2.96875 -4.53125 C 2.078125 -4.53125 1.578125 -3.859375 1.53125 -3.78125 L 1.53125 -4.484375 L 0.8125 -4.484375 L 0.8125 0 L 1.578125 0 L 1.578125 -2.4375 C 1.578125 -3.09375 1.828125 -3.921875 2.59375 -3.921875 C 3.546875 -3.921875 3.5625 -3.21875 3.5625 -2.90625 L 3.5625 0 L 4.34375 0 Z M 4.34375 -2.96875 "/>
</g>
<g id="glyph-0-5">
<path d="M 3.515625 -3.890625 C 3.734375 -3.890625 4 -3.9375 4.25 -3.9375 C 4.421875 -3.9375 4.8125 -3.90625 4.828125 -3.90625 L 4.71875 -4.53125 C 4.03125 -4.53125 3.453125 -4.34375 3.15625 -4.21875 C 2.9375 -4.390625 2.609375 -4.53125 2.203125 -4.53125 C 1.34375 -4.53125 0.625 -3.8125 0.625 -2.90625 C 0.625 -2.546875 0.75 -2.1875 0.953125 -1.921875 C 0.65625 -1.515625 0.65625 -1.125 0.65625 -1.078125 C 0.65625 -0.8125 0.75 -0.53125 0.921875 -0.3125 C 0.40625 -0.015625 0.28125 0.453125 0.28125 0.703125 C 0.28125 1.453125 1.265625 2.046875 2.484375 2.046875 C 3.703125 2.046875 4.6875 1.46875 4.6875 0.703125 C 4.6875 -0.6875 3.03125 -0.6875 2.640625 -0.6875 L 1.765625 -0.6875 C 1.640625 -0.6875 1.1875 -0.6875 1.1875 -1.21875 C 1.1875 -1.328125 1.21875 -1.484375 1.296875 -1.578125 C 1.5 -1.421875 1.828125 -1.28125 2.203125 -1.28125 C 3.09375 -1.28125 3.796875 -2.03125 3.796875 -2.90625 C 3.796875 -3.390625 3.578125 -3.765625 3.46875 -3.90625 Z M 2.203125 -1.859375 C 1.828125 -1.859375 1.3125 -2.078125 1.3125 -2.90625 C 1.3125 -3.734375 1.828125 -3.96875 2.203125 -3.96875 C 2.625 -3.96875 3.09375 -3.6875 3.09375 -2.90625 C 3.09375 -2.140625 2.625 -1.859375 2.203125 -1.859375 Z M 2.65625 0.03125 C 2.875 0.03125 4 0.03125 4 0.71875 C 4 1.15625 3.3125 1.484375 2.5 1.484375 C 1.6875 1.484375 0.984375 1.171875 0.984375 0.703125 C 0.984375 0.671875 0.984375 0.03125 1.75 0.03125 Z M 2.65625 0.03125 "/>
</g>
<g id="glyph-0-6">
<path d="M 9.265625 -6.921875 L 8.546875 -6.921875 L 7.640625 -3.78125 C 7.375 -2.90625 6.890625 -1.21875 6.84375 -0.71875 C 6.84375 -0.734375 6.78125 -1.25 6.125 -3.515625 L 5.140625 -6.921875 L 4.34375 -6.921875 L 3.4375 -3.8125 C 3.21875 -3.046875 2.71875 -1.296875 2.671875 -0.734375 L 2.65625 -0.734375 C 2.625 -1.140625 2.359375 -2.109375 2.265625 -2.4375 L 1.796875 -4.109375 L 1 -6.921875 L 0.140625 -6.921875 L 2.15625 0 L 2.96875 0 L 3.96875 -3.453125 C 4.171875 -4.1875 4.609375 -5.671875 4.671875 -6.1875 C 4.71875 -5.890625 4.953125 -4.9375 5.21875 -4 L 6.375 0 L 7.234375 0 Z M 9.265625 -6.921875 "/>
</g>
<g id="glyph-0-7">
<path d="M 1.5625 -2.140625 C 1.5625 -3.125 2.28125 -3.84375 3.265625 -3.875 L 3.265625 -4.53125 C 2.375 -4.53125 1.828125 -4.03125 1.515625 -3.578125 L 1.515625 -4.484375 L 0.8125 -4.484375 L 0.8125 0 L 1.5625 0 Z M 1.5625 -2.140625 "/>
</g>
<g id="glyph-0-8">
<path d="M 1.75 -3.84375 L 3.15625 -3.84375 L 3.15625 -4.421875 L 1.75 -4.421875 L 1.75 -5.6875 L 1.0625 -5.6875 L 1.0625 -4.421875 L 0.1875 -4.421875 L 0.1875 -3.84375 L 1.03125 -3.84375 L 1.03125 -1.1875 C 1.03125 -0.59375 1.171875 0.109375 1.859375 0.109375 C 2.546875 0.109375 3.0625 -0.140625 3.3125 -0.265625 L 3.15625 -0.859375 C 2.890625 -0.640625 2.578125 -0.53125 2.25 -0.53125 C 1.890625 -0.53125 1.75 -0.828125 1.75 -1.359375 Z M 1.75 -3.84375 "/>
</g>
<g id="glyph-1-0">
<path d="M 3.1875 -2.5625 C 4.453125 -2.5625 5.375 -3.421875 5.375 -4.40625 C 5.375 -5.359375 4.46875 -6.21875 3.1875 -6.21875 L 0.875 -6.21875 L 0.875 0 L 1.734375 0 L 1.734375 -2.5625 Z M 2.984375 -5.6875 C 4.015625 -5.6875 4.59375 -5.125 4.59375 -4.40625 C 4.59375 -3.6875 4.015625 -3.109375 2.984375 -3.109375 L 1.703125 -3.109375 L 1.703125 -5.6875 Z M 2.984375 -5.6875 "/>
</g>
<g id="glyph-1-1">
<path d="M 2.1875 -3.765625 C 1.734375 -3.875 1.28125 -4.234375 1.28125 -4.75 C 1.28125 -5.265625 1.765625 -5.78125 2.578125 -5.78125 C 3.234375 -5.78125 3.671875 -5.59375 4.140625 -5.203125 L 4.28125 -5.984375 C 3.84375 -6.203125 3.40625 -6.421875 2.59375 -6.421875 C 1.3125 -6.421875 0.515625 -5.53125 0.515625 -4.640625 C 0.515625 -4.40625 0.5625 -4.046875 0.859375 -3.640625 C 1.28125 -3.109375 1.859375 -2.96875 2.21875 -2.875 C 2.34375 -2.84375 2.90625 -2.703125 2.984375 -2.6875 C 3.390625 -2.5625 3.84375 -2.171875 3.84375 -1.609375 C 3.84375 -1.015625 3.328125 -0.46875 2.53125 -0.46875 C 1.796875 -0.46875 1.125 -0.75 0.5625 -1.203125 L 0.40625 -0.421875 C 1.296875 0.125 2.109375 0.203125 2.53125 0.203125 C 3.765625 0.203125 4.59375 -0.71875 4.59375 -1.71875 C 4.59375 -2.71875 3.765625 -3.390625 3.09375 -3.546875 Z M 2.1875 -3.765625 "/>
</g>
<g id="glyph-2-0">
<path d="M 2.796875 -2.921875 L 3.671875 -2.921875 C 4.3125 -2.921875 4.4375 -2.8125 4.4375 -2.515625 C 4.4375 -2.5 4.421875 -2.328125 4.375 -2.109375 C 4.328125 -2.015625 4.328125 -2 4.328125 -1.984375 C 4.328125 -1.953125 4.359375 -1.859375 4.453125 -1.859375 C 4.5625 -1.859375 4.5625 -1.90625 4.59375 -2.046875 L 5.09375 -3.984375 C 5.109375 -4.03125 5.125 -4.078125 5.125 -4.125 C 5.125 -4.171875 5.078125 -4.25 5 -4.25 C 4.890625 -4.25 4.875 -4.171875 4.84375 -4.03125 C 4.65625 -3.328125 4.40625 -3.1875 3.6875 -3.1875 L 2.859375 -3.1875 C 2.984375 -3.6875 3.4375 -5.53125 3.46875 -5.640625 C 3.53125 -5.828125 3.625 -5.828125 3.90625 -5.828125 L 5.140625 -5.828125 C 6.265625 -5.828125 6.46875 -5.53125 6.46875 -4.828125 C 6.46875 -4.53125 6.421875 -4.28125 6.421875 -4.21875 C 6.421875 -4.140625 6.46875 -4.078125 6.546875 -4.078125 C 6.65625 -4.078125 6.65625 -4.140625 6.6875 -4.3125 L 6.875 -5.96875 C 6.875 -6.09375 6.78125 -6.09375 6.609375 -6.09375 L 2.109375 -6.09375 C 1.9375 -6.09375 1.84375 -6.09375 1.84375 -5.9375 C 1.84375 -5.828125 1.9375 -5.828125 2.125 -5.828125 C 2.15625 -5.828125 2.328125 -5.828125 2.46875 -5.796875 C 2.65625 -5.78125 2.671875 -5.734375 2.671875 -5.65625 C 2.671875 -5.625 2.671875 -5.609375 2.625 -5.453125 L 1.4375 -0.6875 C 1.359375 -0.359375 1.34375 -0.28125 0.65625 -0.28125 C 0.5 -0.28125 0.390625 -0.28125 0.390625 -0.109375 C 0.390625 -0.0625 0.421875 0 0.53125 0 C 0.625 0 1.046875 -0.015625 1.140625 -0.015625 C 1.203125 -0.03125 1.53125 -0.03125 1.71875 -0.03125 C 1.890625 -0.03125 2.140625 -0.015625 2.359375 -0.015625 C 2.578125 -0.015625 2.828125 0 3.046875 0 C 3.109375 0 3.234375 0 3.234375 -0.15625 C 3.234375 -0.28125 3.140625 -0.28125 2.953125 -0.28125 C 2.9375 -0.28125 2.703125 -0.28125 2.484375 -0.296875 C 2.203125 -0.328125 2.1875 -0.359375 2.1875 -0.46875 C 2.1875 -0.484375 2.1875 -0.53125 2.21875 -0.671875 Z M 2.796875 -2.921875 "/>
</g>
<g id="glyph-2-1">
<path d="M 4.40625 -3.625 C 4.078125 -3.5625 3.984375 -3.28125 3.984375 -3.140625 C 3.984375 -2.96875 4.109375 -2.8125 4.328125 -2.8125 C 4.578125 -2.8125 4.828125 -3.03125 4.828125 -3.34375 C 4.828125 -3.765625 4.375 -3.96875 3.953125 -3.96875 C 3.421875 -3.96875 3.109375 -3.484375 3 -3.296875 C 2.828125 -3.734375 2.4375 -3.96875 2 -3.96875 C 1.046875 -3.96875 0.515625 -2.8125 0.515625 -2.578125 C 0.515625 -2.5 0.578125 -2.46875 0.640625 -2.46875 C 0.71875 -2.46875 0.75 -2.515625 0.765625 -2.578125 C 1.046875 -3.46875 1.640625 -3.734375 1.984375 -3.734375 C 2.25 -3.734375 2.46875 -3.5625 2.46875 -3.140625 C 2.46875 -2.828125 2.09375 -1.390625 1.96875 -0.953125 C 1.90625 -0.6875 1.625 -0.125 1.140625 -0.125 C 0.953125 -0.125 0.765625 -0.1875 0.6875 -0.234375 C 0.921875 -0.28125 1.109375 -0.5 1.109375 -0.71875 C 1.109375 -0.953125 0.9375 -1.046875 0.765625 -1.046875 C 0.5 -1.046875 0.265625 -0.828125 0.265625 -0.515625 C 0.265625 -0.078125 0.75 0.09375 1.125 0.09375 C 1.65625 0.09375 1.953125 -0.328125 2.09375 -0.578125 C 2.3125 0.015625 2.84375 0.09375 3.078125 0.09375 C 4.046875 0.09375 4.5625 -1.0625 4.5625 -1.28125 C 4.5625 -1.328125 4.53125 -1.390625 4.453125 -1.390625 C 4.34375 -1.390625 4.34375 -1.359375 4.296875 -1.21875 C 4.09375 -0.578125 3.578125 -0.125 3.109375 -0.125 C 2.859375 -0.125 2.609375 -0.28125 2.609375 -0.71875 C 2.609375 -0.921875 2.734375 -1.40625 2.8125 -1.75 C 2.859375 -1.90625 3.09375 -2.875 3.109375 -2.9375 C 3.21875 -3.265625 3.484375 -3.734375 3.953125 -3.734375 C 4.109375 -3.734375 4.28125 -3.71875 4.40625 -3.625 Z M 4.40625 -3.625 "/>
</g>
<g id="glyph-2-2">
<path d="M 1.78125 -2.671875 C 2.140625 -2.5625 2.4375 -2.5625 2.609375 -2.5625 C 2.90625 -2.5625 3.46875 -2.5625 3.46875 -2.859375 C 3.46875 -3.078125 3.140625 -3.109375 2.703125 -3.109375 C 2.5 -3.109375 2.28125 -3.109375 1.9375 -3 C 1.828125 -3.109375 1.671875 -3.3125 1.671875 -3.6875 C 1.671875 -4.328125 2.140625 -4.9375 2.65625 -5.171875 C 2.828125 -4.984375 3.078125 -4.984375 3.25 -4.984375 C 3.484375 -4.984375 4.078125 -4.984375 4.078125 -5.28125 C 4.078125 -5.53125 3.671875 -5.53125 3.296875 -5.53125 C 3.09375 -5.53125 2.984375 -5.53125 2.75 -5.484375 C 2.71875 -5.5625 2.703125 -5.6875 2.703125 -5.78125 C 2.703125 -5.984375 2.75 -6.078125 2.75 -6.140625 C 2.75 -6.171875 2.71875 -6.25 2.625 -6.25 C 2.453125 -6.25 2.453125 -5.890625 2.453125 -5.78125 C 2.453125 -5.734375 2.453125 -5.578125 2.515625 -5.4375 C 1.34375 -5.109375 0.921875 -4.328125 0.921875 -3.765625 C 0.921875 -3.234375 1.265625 -2.9375 1.5 -2.8125 C 0.40625 -2.15625 0.203125 -1.203125 0.203125 -0.9375 C 0.203125 -0.125 1 0.171875 1.265625 0.28125 C 1.59375 0.390625 1.90625 0.515625 2.21875 0.640625 C 2.4375 0.703125 2.546875 0.75 2.640625 0.796875 C 2.8125 0.859375 2.984375 0.921875 2.984375 1.15625 C 2.984375 1.34375 2.828125 1.609375 2.5625 1.609375 C 2.390625 1.609375 2.09375 1.578125 1.78125 1.359375 C 1.6875 1.3125 1.671875 1.296875 1.640625 1.296875 C 1.59375 1.296875 1.53125 1.359375 1.53125 1.40625 C 1.53125 1.53125 2.0625 1.84375 2.5625 1.84375 C 3.140625 1.84375 3.5 1.28125 3.5 0.875 C 3.5 0.578125 3.359375 0.390625 3.140625 0.265625 C 3.078125 0.234375 2.03125 -0.15625 1.84375 -0.234375 C 1.171875 -0.484375 0.703125 -0.65625 0.703125 -1.1875 C 0.703125 -1.53125 1.015625 -2.265625 1.78125 -2.671875 Z M 3.78125 -5.25 C 3.71875 -5.234375 3.609375 -5.203125 3.25 -5.203125 C 3.109375 -5.203125 3 -5.203125 2.90625 -5.265625 C 3.0625 -5.3125 3.140625 -5.3125 3.3125 -5.3125 C 3.578125 -5.3125 3.609375 -5.296875 3.78125 -5.265625 Z M 2.21875 -2.828125 C 2.421875 -2.890625 2.5 -2.890625 2.703125 -2.890625 C 2.75 -2.890625 3.171875 -2.890625 3.171875 -2.84375 C 3.171875 -2.796875 2.65625 -2.78125 2.640625 -2.78125 C 2.46875 -2.78125 2.375 -2.78125 2.21875 -2.828125 Z M 2.21875 -2.828125 "/>
</g>
<g id="glyph-2-3">
<path d="M 3.421875 -5.5 C 3.46875 -5.71875 3.5 -5.8125 3.65625 -5.84375 C 3.734375 -5.84375 4.03125 -5.84375 4.21875 -5.84375 C 4.9375 -5.84375 5.921875 -5.84375 5.921875 -4.9375 C 5.921875 -4.609375 5.78125 -3.9375 5.28125 -3.546875 C 5.0625 -3.40625 4.609375 -3.171875 3.890625 -3.171875 L 2.828125 -3.171875 Z M 4.8125 -3.046875 C 6.03125 -3.359375 6.78125 -4.03125 6.78125 -4.765625 C 6.78125 -5.546875 5.921875 -6.125 4.734375 -6.125 L 2.140625 -6.125 C 1.96875 -6.125 1.859375 -6.125 1.859375 -5.96875 C 1.859375 -5.84375 1.953125 -5.84375 2.140625 -5.84375 C 2.171875 -5.84375 2.328125 -5.84375 2.46875 -5.828125 C 2.625 -5.8125 2.6875 -5.796875 2.6875 -5.6875 C 2.6875 -5.65625 2.6875 -5.609375 2.65625 -5.515625 L 1.4375 -0.6875 C 1.359375 -0.359375 1.34375 -0.28125 0.671875 -0.28125 C 0.5 -0.28125 0.40625 -0.28125 0.40625 -0.109375 C 0.40625 -0.015625 0.46875 0 0.53125 0 C 0.6875 0 0.953125 -0.015625 1.109375 -0.015625 C 1.296875 -0.03125 1.3125 -0.03125 1.65625 -0.03125 C 1.953125 -0.03125 1.96875 -0.03125 2.234375 -0.015625 C 2.40625 -0.015625 2.640625 0 2.8125 0 C 2.875 0 2.984375 0 2.984375 -0.15625 C 2.984375 -0.28125 2.890625 -0.28125 2.703125 -0.28125 C 2.671875 -0.28125 2.515625 -0.28125 2.375 -0.296875 C 2.171875 -0.328125 2.15625 -0.359375 2.15625 -0.4375 C 2.15625 -0.46875 2.15625 -0.484375 2.203125 -0.640625 L 2.78125 -2.953125 L 3.890625 -2.953125 C 4.6875 -2.953125 4.890625 -2.484375 4.890625 -2.140625 C 4.890625 -2.078125 4.890625 -2.015625 4.84375 -1.828125 C 4.625 -1 4.625 -0.921875 4.625 -0.78125 C 4.625 0.03125 5.390625 0.203125 5.84375 0.203125 C 6.625 0.203125 6.953125 -0.703125 6.953125 -0.859375 C 6.953125 -0.921875 6.890625 -0.953125 6.828125 -0.953125 C 6.734375 -0.953125 6.734375 -0.921875 6.6875 -0.8125 C 6.53125 -0.34375 6.203125 -0.03125 5.875 -0.03125 C 5.53125 -0.03125 5.515625 -0.296875 5.515625 -0.5625 C 5.515625 -0.78125 5.578125 -1.296875 5.59375 -1.359375 C 5.609375 -1.5 5.65625 -1.859375 5.65625 -2 C 5.65625 -2.515625 5.328125 -2.859375 4.8125 -3.046875 Z M 4.8125 -3.046875 "/>
</g>
<g id="glyph-3-0">
<path d="M 3.0625 2.140625 C 3.0625 2.09375 3.03125 2.0625 2.984375 2 C 1.828125 0.9375 1.46875 -0.671875 1.46875 -2.25 C 1.46875 -3.625 1.734375 -5.3125 3 -6.515625 C 3.046875 -6.5625 3.0625 -6.578125 3.0625 -6.625 C 3.0625 -6.6875 3.015625 -6.734375 2.953125 -6.734375 C 2.84375 -6.734375 2.03125 -6.078125 1.546875 -5.109375 C 1.125 -4.25 0.90625 -3.3125 0.90625 -2.25 C 0.90625 -1.609375 0.984375 -0.578125 1.484375 0.46875 C 2.015625 1.578125 2.84375 2.234375 2.953125 2.234375 C 3.015625 2.234375 3.0625 2.203125 3.0625 2.140625 Z M 3.0625 2.140625 "/>
</g>
<g id="glyph-3-1">
<path d="M 2.671875 -2.25 C 2.671875 -2.984375 2.5625 -3.96875 2.09375 -4.96875 C 1.5625 -6.078125 0.734375 -6.734375 0.625 -6.734375 C 0.53125 -6.734375 0.515625 -6.65625 0.515625 -6.625 C 0.515625 -6.578125 0.53125 -6.5625 0.59375 -6.5 C 1.125 -6.03125 2.109375 -4.8125 2.109375 -2.25 C 2.109375 -0.96875 1.875 0.8125 0.578125 2.03125 C 0.5625 2.046875 0.515625 2.09375 0.515625 2.140625 C 0.515625 2.15625 0.53125 2.234375 0.625 2.234375 C 0.734375 2.234375 1.546875 1.59375 2.03125 0.609375 C 2.453125 -0.25 2.671875 -1.171875 2.671875 -2.25 Z M 2.671875 -2.25 "/>
</g>
<g id="glyph-3-2">
<path d="M 6.34375 -2.96875 C 6.46875 -2.96875 6.640625 -2.96875 6.640625 -3.15625 C 6.640625 -3.359375 6.453125 -3.359375 6.3125 -3.359375 L 0.84375 -3.359375 C 0.703125 -3.359375 0.515625 -3.359375 0.515625 -3.15625 C 0.515625 -2.96875 0.6875 -2.96875 0.8125 -2.96875 Z M 6.3125 -1.140625 C 6.453125 -1.140625 6.640625 -1.140625 6.640625 -1.34375 C 6.640625 -1.53125 6.46875 -1.53125 6.34375 -1.53125 L 0.8125 -1.53125 C 0.6875 -1.53125 0.515625 -1.53125 0.515625 -1.34375 C 0.515625 -1.140625 0.703125 -1.140625 0.84375 -1.140625 Z M 6.3125 -1.140625 "/>
</g>
<g id="glyph-3-3">
<path d="M 3.96875 -5 L 3.96875 -5.3125 L 0.640625 -5.3125 L 0.640625 -5 Z M 3.96875 -5 "/>
</g>
<g id="glyph-4-0">
<path d="M 1.359375 -0.734375 C 1.125 -0.390625 0.921875 -0.265625 0.59375 -0.234375 C 0.5 -0.234375 0.4375 -0.234375 0.4375 -0.09375 C 0.4375 -0.03125 0.484375 0 0.515625 0 C 0.6875 0 0.890625 -0.03125 1.0625 -0.03125 C 1.203125 -0.03125 1.5625 0 1.703125 0 C 1.765625 0 1.828125 -0.03125 1.828125 -0.15625 C 1.828125 -0.234375 1.75 -0.234375 1.734375 -0.234375 C 1.578125 -0.25 1.453125 -0.28125 1.453125 -0.40625 C 1.453125 -0.484375 1.515625 -0.59375 1.53125 -0.625 L 2.03125 -1.359375 L 3.828125 -1.359375 L 3.984375 -0.390625 C 3.984375 -0.234375 3.640625 -0.234375 3.578125 -0.234375 C 3.5 -0.234375 3.40625 -0.234375 3.40625 -0.09375 C 3.40625 -0.0625 3.4375 0 3.5 0 C 3.6875 0 4.125 -0.03125 4.296875 -0.03125 C 4.421875 -0.03125 4.53125 -0.015625 4.65625 -0.015625 C 4.78125 -0.015625 4.90625 0 5.015625 0 C 5.0625 0 5.15625 0 5.15625 -0.15625 C 5.15625 -0.234375 5.078125 -0.234375 4.984375 -0.234375 C 4.609375 -0.234375 4.609375 -0.28125 4.578125 -0.4375 L 3.984375 -4.109375 C 3.96875 -4.21875 3.96875 -4.265625 3.828125 -4.265625 C 3.703125 -4.265625 3.671875 -4.21875 3.609375 -4.140625 Z M 2.1875 -1.59375 L 3.484375 -3.546875 L 3.78125 -1.59375 Z M 2.1875 -1.59375 "/>
</g>
<g id="glyph-5-0">
<path d="M 1.875 -2.8125 C 1.921875 -2.90625 1.9375 -2.96875 1.9375 -3 C 1.9375 -3.1875 1.765625 -3.34375 1.5625 -3.34375 C 1.328125 -3.34375 1.25 -3.140625 1.234375 -3.046875 L 0.390625 -0.484375 C 0.390625 -0.453125 0.359375 -0.40625 0.359375 -0.390625 C 0.359375 -0.28125 0.609375 -0.234375 0.609375 -0.234375 C 0.671875 -0.234375 0.6875 -0.28125 0.71875 -0.328125 Z M 1.875 -2.8125 "/>
</g>
</g>
<clipPath id="clip-0">
<path clip-rule="nonzero" d="M 26 46 L 154 46 L 154 226.054688 L 26 226.054688 Z M 26 46 "/>
</clipPath>
<clipPath id="clip-1">
<path clip-rule="nonzero" d="M 26 31 L 310 31 L 310 226.054688 L 26 226.054688 Z M 26 31 "/>
</clipPath>
</defs>
<path fill-rule="nonzero" fill="rgb(79.998779%, 93.255615%, 96.705627%)" fill-opacity="1" d="M 38.203125 216.3125 L 38.203125 43.085938 L 298.042969 216.3125 Z M 38.203125 216.3125 "/>
<path fill-rule="nonzero" fill="rgb(100%, 100%, 100%)" fill-opacity="1" d="M 38.203125 216.3125 L 142.375 216.3125 M 142.375 216.3125 L 142.351562 213.160156 L 142.289062 210.003906 L 142.183594 206.851562 L 142.039062 203.703125 L 141.855469 200.5625 L 141.632812 197.421875 L 141.367188 194.292969 L 141.058594 191.171875 L 140.707031 188.0625 L 140.320312 184.960938 L 139.886719 181.875 L 139.417969 178.800781 L 138.910156 175.738281 L 138.359375 172.695312 L 137.773438 169.667969 L 137.144531 166.664062 L 136.476562 163.675781 L 135.769531 160.710938 L 135.023438 157.765625 L 134.242188 154.84375 L 133.421875 151.941406 L 132.5625 149.070312 L 131.664062 146.226562 L 130.734375 143.40625 L 129.765625 140.621094 L 128.757812 137.859375 L 127.714844 135.132812 L 126.640625 132.433594 L 125.527344 129.769531 L 124.382812 127.144531 L 123.199219 124.550781 L 121.988281 121.996094 L 120.738281 119.472656 L 119.457031 116.996094 L 118.148438 114.546875 L 116.804688 112.144531 L 115.429688 109.785156 L 114.023438 107.464844 L 112.585938 105.195312 L 111.121094 102.964844 L 109.628906 100.773438 L 108.109375 98.632812 L 106.5625 96.535156 L 104.984375 94.492188 L 103.382812 92.492188 L 101.75 90.542969 L 100.097656 88.640625 L 98.417969 86.792969 L 96.714844 84.992188 L 94.996094 83.242188 L 93.246094 81.546875 L 91.476562 79.910156 L 89.6875 78.324219 L 87.875 76.792969 L 86.046875 75.3125 L 84.195312 73.890625 L 82.328125 72.519531 L 80.445312 71.214844 L 78.542969 69.964844 L 76.625 68.769531 L 74.691406 67.640625 L 72.746094 66.558594 L 70.785156 65.542969 L 68.808594 64.585938 L 66.824219 63.6875 L 64.828125 62.847656 L 62.816406 62.078125 L 60.804688 61.363281 L 58.777344 60.707031 L 56.742188 60.113281 L 54.699219 59.578125 L 52.652344 59.113281 L 50.597656 58.703125 L 48.539062 58.363281 L 46.476562 58.082031 L 44.410156 57.863281 L 42.339844 57.703125 L 40.273438 57.609375 L 38.203125 57.574219 L 38.203125 216.3125 "/>
<path fill="none" stroke-width="0.79701" stroke-linecap="butt" stroke-linejoin="miter" stroke="rgb(50%, 50%, 50%)" stroke-opacity="1" stroke-miterlimit="10" d="M -2.834813 0.0005 L 296.844875 0.0005 " transform="matrix(1, 0, 0, -1, 38.202, 216.313)"/>
<path fill="none" stroke-width="0.79701" stroke-linecap="round" stroke-linejoin="round" stroke="rgb(50%, 50%, 50%)" stroke-opacity="1" stroke-miterlimit="10" d="M -2.550589 3.109875 C -2.085745 1.242688 -1.046682 0.363781 0.0001925 0.0005 C -1.046682 -0.362781 -2.085745 -1.245594 -2.550589 -3.112781 " transform="matrix(1, 0, 0, -1, 335.44512, 216.313)"/>
<g fill="rgb(50%, 50%, 50%)" fill-opacity="1">
<use xlink:href="#glyph-0-0" x="339.559" y="218.804"/>
<use xlink:href="#glyph-0-1" x="345.924105" y="218.804"/>
</g>
<g fill="rgb(50%, 50%, 50%)" fill-opacity="1">
<use xlink:href="#glyph-0-2" x="351.184358" y="218.804"/>
<use xlink:href="#glyph-0-3" x="356.332033" y="218.804"/>
<use xlink:href="#glyph-0-4" x="358.712099" y="218.804"/>
<use xlink:href="#glyph-0-5" x="363.859774" y="218.804"/>
</g>
<path fill="none" stroke-width="0.79701" stroke-linecap="butt" stroke-linejoin="miter" stroke="rgb(50%, 50%, 50%)" stroke-opacity="1" stroke-miterlimit="10" d="M 0.001125 -2.835437 L 0.001125 197.629406 " transform="matrix(1, 0, 0, -1, 38.202, 216.313)"/>
<path fill="none" stroke-width="0.79701" stroke-linecap="round" stroke-linejoin="round" stroke="rgb(50%, 50%, 50%)" stroke-opacity="1" stroke-miterlimit="10" d="M -2.552177 3.112156 C -2.083427 1.244969 -1.044365 0.362156 -0.00139625 -0.001125 C -1.044365 -0.364406 -2.083427 -1.243312 -2.552177 -3.1105 " transform="matrix(0, -1, -1, 0, 38.202, 18.28376)"/>
<g fill="rgb(50%, 50%, 50%)" fill-opacity="1">
<use xlink:href="#glyph-0-6" x="22.69" y="12.232"/>
</g>
<g fill="rgb(50%, 50%, 50%)" fill-opacity="1">
<use xlink:href="#glyph-0-7" x="31.820723" y="12.232"/>
<use xlink:href="#glyph-0-3" x="35.224943" y="12.232"/>
<use xlink:href="#glyph-0-8" x="37.605008" y="12.232"/>
<use xlink:href="#glyph-0-3" x="41.202503" y="12.232"/>
<use xlink:href="#glyph-0-4" x="43.582568" y="12.232"/>
<use xlink:href="#glyph-0-5" x="48.730244" y="12.232"/>
</g>
<g clip-path="url(#clip-0)">
<path fill="none" stroke-width="0.79701" stroke-linecap="butt" stroke-linejoin="miter" stroke="rgb(19.999695%, 39.608765%, 54.116821%)" stroke-opacity="1" stroke-miterlimit="10" d="M 104.173 0.0005 L 104.149563 3.152844 L 104.087063 6.309094 L 103.981594 9.461438 L 103.837063 12.609875 L 103.653469 15.7505 L 103.430813 18.891125 L 103.165188 22.020031 L 102.856594 25.141125 L 102.505031 28.2505 L 102.118313 31.352063 L 101.684719 34.438 L 101.215969 37.512219 L 100.708156 40.574719 L 100.157375 43.617688 L 99.571438 46.645031 L 98.942531 49.648938 L 98.274563 52.637219 L 97.567531 55.602063 L 96.821438 58.547375 L 96.040188 61.46925 L 95.219875 64.371594 L 94.3605 67.242688 L 93.462063 70.086438 L 92.532375 72.90675 L 91.563625 75.691906 L 90.555813 78.453625 L 89.512844 81.180188 L 88.438625 83.879406 L 87.325344 86.543469 L 86.180813 89.168469 L 84.997219 91.762219 L 83.786281 94.316906 L 82.536281 96.840344 L 81.255031 99.316906 L 79.946438 101.766125 L 78.602688 104.168469 L 77.227688 106.527844 L 75.821438 108.848156 L 74.383938 111.117688 L 72.919094 113.348156 L 71.426906 115.539563 L 69.907375 117.680188 L 68.3605 119.777844 L 66.782375 121.820813 L 65.180813 123.820813 L 63.548 125.770031 L 61.895656 127.672375 L 60.215969 129.520031 L 58.512844 131.320813 L 56.794094 133.070813 L 55.044094 134.766125 L 53.274562 136.402844 L 51.4855 137.988781 L 49.673 139.520031 L 47.844875 141.0005 L 45.993312 142.422375 L 44.126125 143.793469 L 42.243312 145.098156 L 40.340969 146.348156 L 38.423 147.543469 L 36.489406 148.672375 L 34.544094 149.754406 L 32.583156 150.770031 L 30.606594 151.727063 L 28.622219 152.6255 L 26.626125 153.465344 L 24.614406 154.234875 L 22.602687 154.949719 L 20.575344 155.605969 L 18.540187 156.199719 L 16.497219 156.734875 L 14.450344 157.199719 L 12.395656 157.609875 L 10.337062 157.949719 L 8.274562 158.230969 L 6.208156 158.449719 L 4.137844 158.609875 L 2.071437 158.703625 L 0.001125 158.738781 " transform="matrix(1, 0, 0, -1, 38.202, 216.313)"/>
</g>
<g fill="rgb(19.999695%, 39.608765%, 54.116821%)" fill-opacity="1">
<use xlink:href="#glyph-1-0" x="35.631" y="85.489"/>
<use xlink:href="#glyph-1-0" x="41.525511" y="85.489"/>
<use xlink:href="#glyph-1-1" x="47.420023" y="85.489"/>
</g>
<path fill="none" stroke-width="0.79701" stroke-linecap="butt" stroke-linejoin="miter" stroke="rgb(83.137512%, 59.214783%, 33.724976%)" stroke-opacity="1" stroke-miterlimit="10" d="M 22.321437 163.379406 L 27.4855 157.301281 L 32.645656 152.309094 L 37.805812 148.117688 L 42.969875 144.566906 L 48.130031 141.492688 L 53.290187 138.773938 L 58.45425 136.352063 L 63.614406 134.172375 L 68.774563 132.191906 L 73.938625 130.402844 L 79.098781 128.734875 L 84.262844 127.203625 L 89.423 125.773938 L 94.583156 124.426281 L 99.747219 123.180188 L 104.907375 122.004406 L 110.067531 120.898938 L 115.231594 119.859875 L 120.39175 118.852063 L 125.555813 117.90675 L 130.715969 117.016125 L 135.876125 116.160656 L 141.040188 115.336438 L 146.200344 114.547375 L 151.3605 113.816906 L 156.524563 113.102063 L 161.684719 112.398938 L 166.844875 111.734875 L 172.008938 111.098156 L 177.169094 110.473156 L 182.333156 109.871594 L 187.493313 109.285656 L 192.653469 108.727063 L 197.817531 108.180188 L 202.977688 107.65675 L 208.137844 107.152844 L 213.301906 106.645031 L 218.462063 106.160656 L 223.622219 105.691906 L 228.786281 105.234875 L 233.946438 104.801281 L 239.1105 104.363781 L 244.270656 103.938 L 249.430813 103.520031 L 254.594875 103.113781 L 259.755031 102.734875 L 264.915188 102.348156 L 270.07925 101.973156 L 275.239406 101.605969 " transform="matrix(1, 0, 0, -1, 38.202, 216.313)"/>
<g fill="rgb(83.137512%, 59.214783%, 33.724976%)" fill-opacity="1">
<use xlink:href="#glyph-2-0" x="317.037" y="119.671"/>
</g>
<g fill="rgb(83.137512%, 59.214783%, 33.724976%)" fill-opacity="1">
<use xlink:href="#glyph-3-0" x="324.201" y="119.671"/>
</g>
<g fill="rgb(83.137512%, 59.214783%, 33.724976%)" fill-opacity="1">
<use xlink:href="#glyph-2-1" x="327.785" y="119.671"/>
</g>
<g fill="rgb(83.137512%, 59.214783%, 33.724976%)" fill-opacity="1">
<use xlink:href="#glyph-3-1" x="333.009" y="119.671"/>
</g>
<g fill="rgb(83.137512%, 59.214783%, 33.724976%)" fill-opacity="1">
<use xlink:href="#glyph-3-2" x="339.148294" y="119.671"/>
</g>
<g fill="rgb(83.137512%, 59.214783%, 33.724976%)" fill-opacity="1">
<use xlink:href="#glyph-3-3" x="350.926" y="117.405"/>
</g>
<g fill="rgb(83.137512%, 59.214783%, 33.724976%)" fill-opacity="1">
<use xlink:href="#glyph-2-0" x="348.88" y="119.671"/>
</g>
<path fill-rule="nonzero" fill="rgb(0%, 0%, 0%)" fill-opacity="1" d="M 81.21875 70.765625 C 81.21875 69.941406 80.550781 69.273438 79.722656 69.273438 C 78.898438 69.273438 78.230469 69.941406 78.230469 70.765625 C 78.230469 71.59375 78.898438 72.261719 79.722656 72.261719 C 80.550781 72.261719 81.21875 71.59375 81.21875 70.765625 Z M 81.21875 70.765625 "/>
<g fill="rgb(0%, 0%, 0%)" fill-opacity="1">
<use xlink:href="#glyph-2-1" x="83.243" y="66.253"/>
</g>
<g fill="rgb(0%, 0%, 0%)" fill-opacity="1">
<use xlink:href="#glyph-4-0" x="88.466" y="67.249"/>
</g>
<g clip-path="url(#clip-1)">
<path fill="none" stroke-width="0.79701" stroke-linecap="butt" stroke-linejoin="miter" stroke="rgb(50%, 50%, 50%)" stroke-opacity="1" stroke-dasharray="2.98883 2.98883" stroke-miterlimit="10" d="M 0.001125 173.227063 L 259.840969 0.0005 " transform="matrix(1, 0, 0, -1, 38.202, 216.313)"/>
</g>
<g fill="rgb(50%, 50%, 50%)" fill-opacity="1">
<use xlink:href="#glyph-2-2" x="11.955" y="40.404"/>
</g>
<g fill="rgb(50%, 50%, 50%)" fill-opacity="1">
<use xlink:href="#glyph-5-0" x="16.38" y="36.595"/>
</g>
<g fill="rgb(50%, 50%, 50%)" fill-opacity="1">
<use xlink:href="#glyph-2-1" x="19.064" y="40.404"/>
</g>
<g fill="rgb(50%, 50%, 50%)" fill-opacity="1">
<use xlink:href="#glyph-3-2" x="26.848" y="40.404"/>
</g>
<g fill="rgb(50%, 50%, 50%)" fill-opacity="1">
<use xlink:href="#glyph-2-3" x="36.575" y="40.404"/>
</g>
<path fill="none" stroke-width="1.19553" stroke-linecap="butt" stroke-linejoin="miter" stroke="rgb(90.194702%, 11.764526%, 14.509583%)" stroke-opacity="1" stroke-miterlimit="10" d="M 41.520656 145.547375 L 64.520656 179.96925 " transform="matrix(1, 0, 0, -1, 38.202, 216.313)"/>
<path fill="none" stroke-width="1.19553" stroke-linecap="round" stroke-linejoin="round" stroke="rgb(90.194702%, 11.764526%, 14.509583%)" stroke-opacity="1" stroke-miterlimit="10" d="M -3.027328 3.830445 C -2.473635 1.531877 -1.241781 0.447437 0.00137704 0.000081068 C -1.242006 -0.445334 -2.47502 -1.532147 -3.02862 -3.832864 " transform="matrix(0.55547, -0.83147, -0.83147, -0.55547, 103.05399, 35.84494)"/>
<g fill="rgb(90.194702%, 11.764526%, 14.509583%)" fill-opacity="1">
<use xlink:href="#glyph-2-2" x="101.172" y="30.087"/>
</g>
<path fill-rule="nonzero" fill="rgb(36.471558%, 35.293579%, 53.33252%)" fill-opacity="1" d="M 204.894531 176.628906 C 204.894531 174.976562 203.554688 173.640625 201.90625 173.640625 C 200.253906 173.640625 198.917969 174.976562 198.917969 176.628906 C 198.917969 178.277344 200.253906 179.617188 201.90625 179.617188 C 203.554688 179.617188 204.894531 178.277344 204.894531 176.628906 Z M 204.894531 176.628906 "/>
</svg>
