<svg width="75" height="75" viewBox="0 0 75 75" fill="none" xmlns="http://www.w3.org/2000/svg">
<g clip-path="url(#clip0_342_4053)">
<rect width="75" height="75" fill="white"/>
<path d="M26.7778 64.3097V73.5395C26.7778 74.3667 27.4456 75.0346 28.2729 75.0346H36.0076C36.8349 75.0346 37.5027 74.3667 37.5027 73.5395V65.8048C37.5027 64.9775 36.8349 64.3097 36.0076 64.3097H26.7778Z" fill="#E61E25"/>
<path d="M26.7777 42.86H6.82311C5.99582 42.86 5.328 43.5278 5.328 44.3551V62.8146C5.328 63.6419 5.99582 64.3097 6.82311 64.3097H26.7777V42.86Z" fill="#D4D2E3"/>
<path d="M26.7778 1.46056V42.8599H68.1772C69.0045 42.8599 69.6723 42.1921 69.6723 41.3648V1.46056C69.6723 0.633266 69.0045 -0.0345459 68.1772 -0.0345459H28.2729C27.4456 -0.0345459 26.7778 0.633266 26.7778 1.46056Z" fill="#D4D2E3"/>
</g>
<defs>
<clipPath id="clip0_342_4053">
<rect width="75" height="75" fill="white"/>
</clipPath>
</defs>
</svg>
