<svg width="390" height="90" viewBox="0 0 390 90" fill="none" xmlns="http://www.w3.org/2000/svg">
<g clip-path="url(#clip0_1388_667)">
<path d="M86.8926 29.8613C86.8926 30.6898 86.221 31.3613 85.3926 31.3613L77.8926 31.3613C77.0642 31.3613 76.3926 30.6898 76.3926 29.8613L76.3926 20.8613L85.3926 20.8613C86.221 20.8613 86.8926 21.5329 86.8926 22.3613L86.8926 29.8613Z" fill="#E61E25"/>
<path d="M-6.5 10.5H74.884C75.7125 10.5 76.384 11.1716 76.384 12V20.8231H-5C-5.82843 20.8231 -6.5 20.1515 -6.5 19.3231V10.5Z" fill="#E61E25"/>
<rect x="184.5" y="72.5" width="10.5" height="10.5" rx="1.5" transform="rotate(-180 184.5 72.5)" fill="#E61E25"/>
<path d="M365 60.5C365 61.3284 364.328 62 363.5 62L356 62C355.172 62 354.5 61.3284 354.5 60.5L354.5 51.5L363.5 51.5C364.328 51.5 365 52.1716 365 53L365 60.5Z" fill="#E61E25"/>
<path d="M354.5 51.5L345.5 51.5C344.672 51.5 344 50.8284 344 50L344 42.5C344 41.6716 344.672 41 345.5 41L353 41C353.828 41 354.5 41.6716 354.5 42.5L354.5 51.5Z" fill="#E61E25"/>
</g>
<defs>
<clipPath id="clip0_1388_667">
<rect width="390" height="90" fill="white"/>
</clipPath>
</defs>
</svg>
