<svg width="235" height="90" viewBox="0 0 235 90" fill="none" xmlns="http://www.w3.org/2000/svg">
<path d="M42.8975 89.4294V63.7891H47.7936V89.4294H42.8975ZM47.8672 75.7534L57.1073 63.7891H62.8685L53.2603 75.7534L63.4023 89.4294H57.7515L47.8672 75.7534Z" fill="black"/>
<path d="M66.0712 76.6185C66.0712 72.2254 67.059 68.9 69.0347 66.6421C71.0226 64.372 73.8388 63.2369 77.4833 63.2369C81.1277 63.2369 83.9439 64.372 85.9318 66.6421C87.9197 68.9 88.9137 72.2254 88.9137 76.6185C88.9137 81.0115 87.9197 84.343 85.9318 86.6132C83.9439 88.871 81.1277 90 77.4833 90C73.8388 90 71.0226 88.871 69.0347 86.6132C67.059 84.343 66.0712 81.0115 66.0712 76.6185ZM71.3355 80.5759C71.3355 81.4348 71.5012 82.1895 71.8325 82.8399C72.1638 83.4902 72.6055 84.0424 73.1577 84.4964C73.7099 84.9505 74.3542 85.2879 75.0904 85.5088C75.8267 85.7297 76.6243 85.8401 77.4833 85.8401C78.3422 85.8401 79.1398 85.7297 79.8761 85.5088C80.6246 85.2879 81.275 84.9505 81.8272 84.4964C82.3794 84.0424 82.815 83.4902 83.1341 82.8399C83.4654 82.1772 83.631 81.4226 83.631 80.5759V72.6611C83.631 71.8021 83.4654 71.0474 83.1341 70.3971C82.815 69.7467 82.3794 69.1945 81.8272 68.7405C81.275 68.2865 80.6246 67.949 79.8761 67.7281C79.1398 67.495 78.3422 67.3784 77.4833 67.3784C76.6243 67.3784 75.8267 67.495 75.0904 67.7281C74.3542 67.949 73.7099 68.2865 73.1577 68.7405C72.6055 69.1945 72.1638 69.7467 71.8325 70.3971C71.5012 71.0474 71.3355 71.8021 71.3355 72.6611V80.5759Z" fill="black"/>
<path d="M94.1411 89.4294V63.7891H104.578C107.314 63.7891 109.339 64.4395 110.652 65.7402C111.965 67.0287 112.621 69.0166 112.621 71.7039C112.621 73.7409 112.137 75.3791 111.167 76.6185C110.198 77.8456 108.848 78.6984 107.118 79.177L112.989 89.4294H107.559L102.166 79.5819H99.0373V89.4294H94.1411ZM99.0373 75.5509H105.222C106.756 75.5509 107.523 74.698 107.523 72.9924V70.3603C107.523 69.5013 107.351 68.8877 107.007 68.5196C106.676 68.1392 106.081 67.949 105.222 67.949H99.0373V75.5509Z" fill="black"/>
<path d="M118.033 89.4294V63.7891H135.666V67.949H122.929V74.244H133.936V78.3855H122.929V85.2879H135.666V89.4294H118.033Z" fill="black"/>
<path d="M140.967 89.4294V63.7891H148.311L155.969 83.3184H156.116V63.7891H160.994V89.4294H153.631L145.974 69.8633H145.827V89.4294H140.967Z" fill="black"/>
<path d="M214.245 90V64.3597H219.141V90H214.245ZM219.215 76.324L228.455 64.3597H234.216L224.608 76.324L234.75 90H229.099L219.215 76.324Z" fill="#E61E25"/>
<path d="M181.85 90V64.3597H189.838L194.826 84.4964H194.973L199.87 64.3597H207.895V90H203.183V69.6792H203.035L197.79 90H191.955L186.709 69.6792H186.562V90H181.85Z" fill="#E61E25"/>
<path d="M174.103 84.6376H168.74V90H174.103V84.6376Z" fill="#E61E25"/>
<path d="M21.4497 64.3442V73.574C21.4497 74.4013 22.1175 75.0691 22.9448 75.0691H30.6795C31.5068 75.0691 32.1746 74.4013 32.1746 73.574V65.8393C32.1746 65.0121 31.5068 64.3442 30.6795 64.3442H21.4497Z" fill="#E61E25"/>
<path d="M21.4497 42.8945H1.4951C0.667812 42.8945 0 43.5623 0 44.3896V62.8492C0 63.6765 0.667812 64.3443 1.4951 64.3443H21.4497V42.8945Z" fill="#D4D2E3"/>
<path d="M21.4497 1.4951V42.8945H62.8491C63.6764 42.8945 64.3442 42.2267 64.3442 41.3994V1.4951C64.3442 0.667812 63.6764 0 62.8491 0H22.9448C22.1175 0 21.4497 0.667812 21.4497 1.4951Z" fill="#D4D2E3"/>
</svg>
