<svg width="542" height="500" viewBox="0 0 542 500" fill="none" xmlns="http://www.w3.org/2000/svg">
<path d="M240 347.5V147.5C240 145.015 242.015 143 244.5 143L537.5 143C539.985 143 542 145.015 542 147.5L542 347.5C542 349.985 539.985 352 537.5 352H244.5C242.015 352 240 349.985 240 347.5Z" fill="#232324"/>
<path d="M144.652 495.499V427.676H212.476C214.961 427.676 216.976 429.69 216.976 432.176V495.499C216.976 497.985 214.961 499.999 212.476 499.999H149.152C146.667 499.999 144.652 497.985 144.652 495.499Z" fill="#E61E25"/>
<path d="M144.647 283.029H10.0823C4.50343 283.029 0 287.533 0 293.112V417.594C0 423.173 4.50343 427.677 10.0823 427.677H144.647V283.029Z" fill="#E61E25"/>
<path d="M144.652 283.029V4.5C144.652 2.01472 146.667 0 149.152 0H432.394C434.879 0 436.894 2.01471 436.894 4.5V278.529C436.894 281.014 434.879 283.029 432.394 283.029H144.652Z" fill="#E61E25"/>
</svg>
